<?xml version="1.0" standalone="no"?>
<!DOCTYPE svg PUBLIC "-//W3C//DTD SVG 1.1//EN" "http://www.w3.org/Graphics/SVG/1.1/DTD/svg11.dtd" >
<svg xmlns="http://www.w3.org/2000/svg">
<metadata></metadata>
<defs>
<font id="karbonmedium_italic" horiz-adv-x="1081" >
<font-face units-per-em="2048" ascent="1393" descent="-655" />
<missing-glyph horiz-adv-x="389" />
<glyph unicode="&#xfb01;" horiz-adv-x="1071" d="M78 737l31 170h141l33 176q28 165 125.5 247.5t240.5 82.5q149 0 244 -78l-35 -182q-88 82 -201 82q-73 0 -118 -39.5t-62 -130.5l-26 -158h563l-158 -907h-201l129 737h-364l-129 -737h-201l131 737h-143z" />
<glyph unicode="&#xfb02;" horiz-adv-x="1071" d="M78 737l31 170h141l35 191q58 315 331 315q97 0 164 -43l-32 -178q-53 41 -119 41q-60 0 -98 -37t-52 -121l-28 -168h211l-31 -170h-211l-129 -737h-201l131 737h-143zM655 0l244 1393h201l-244 -1393h-201z" />
<glyph unicode="&#xfb03;" horiz-adv-x="1636" d="M78 737l31 170h141l29 162q58 315 331 315q104 0 168 -43l-33 -176q-51 39 -120 39q-62 0 -99 -35.5t-51 -121.5l-24 -140h364l31 176q28 164 126 247t240 83q151 0 246 -78l-35 -182q-92 82 -200 82q-74 0 -119 -39.5t-62 -130.5l-28 -158h565l-160 -907h-198l129 737 h-365l-129 -737h-201l129 737h-364l-129 -737h-201l131 737h-143z" />
<glyph unicode="&#xfb04;" horiz-adv-x="1636" d="M78 737l31 170h141l29 162q58 315 331 315q104 0 168 -43l-33 -176q-51 39 -120 39q-62 0 -99 -35.5t-51 -121.5l-24 -140h364l35 191q27 157 111.5 236t218.5 79q99 0 163 -43l-32 -178q-50 41 -117 41q-61 0 -98.5 -36.5t-51.5 -121.5l-30 -168h211l-29 -170h-211 l-129 -737h-201l129 737h-364l-129 -737h-201l131 737h-143zM1221 0l243 1393h201l-246 -1393h-198z" />
<glyph horiz-adv-x="0" />
<glyph horiz-adv-x="682" />
<glyph unicode=" "  horiz-adv-x="389" />
<glyph unicode="&#x09;" horiz-adv-x="389" />
<glyph unicode="&#xa0;" horiz-adv-x="389" />
<glyph unicode="!" horiz-adv-x="538" d="M86 123q0 59 40.5 100t98.5 41q59 0 101.5 -41.5t42.5 -99.5t-42.5 -99.5t-101.5 -41.5q-58 0 -98.5 41t-40.5 100zM164 381l147 836h201l-147 -836h-201z" />
<glyph unicode="&#x22;" horiz-adv-x="696" d="M190 866l99 453h176l-129 -453h-146zM461 866l98 453h176l-131 -453h-143z" />
<glyph unicode="#" horiz-adv-x="1122" d="M63 332l27 145h180l101 264h-168l24 146h197l125 330h164l-125 -330h223l125 330h164l-125 -330h145l-24 -146h-174l-101 -264h162l-27 -145h-190l-125 -332h-164l125 332h-223l-125 -332h-164l125 332h-152zM434 477h223l101 264h-223z" />
<glyph unicode="$" horiz-adv-x="927" d="M35 133l41 195q66 -68 153.5 -112t182.5 -44q100 0 159.5 44t59.5 128q0 35 -13.5 63.5t-43.5 51.5t-59.5 38.5t-78.5 37.5q-72 29 -120 57t-88 67t-59 91.5t-19 121.5q0 146 100.5 240.5t269.5 104.5l31 176h160l-33 -189q133 -29 217 -104l-37 -201q-61 67 -140 105 t-165 38q-95 0 -146 -39.5t-51 -113.5q0 -35 13.5 -62t43 -48.5t56 -35.5t72.5 -34q78 -33 129 -63t92.5 -71t60.5 -93.5t19 -121.5q0 -158 -104.5 -252t-272.5 -108l-33 -195h-160l37 201q-171 28 -274 127z" />
<glyph unicode="%" horiz-adv-x="1452" d="M123 920q0 135 93 226t220 91q122 0 201.5 -77t79.5 -197q0 -135 -93.5 -225.5t-222.5 -90.5q-122 0 -200 76.5t-78 196.5zM193 0l944 1217h161l-944 -1217h-161zM283 924q0 -56 34.5 -90.5t90.5 -34.5q65 0 107 43t42 116q0 57 -34.5 92t-90.5 35q-65 0 -107 -43 t-42 -118zM774 254q0 135 93.5 225t222.5 90q121 0 199.5 -76.5t78.5 -195.5q0 -135 -93 -226t-222 -91q-122 0 -200.5 77t-78.5 197zM934 258q0 -57 34.5 -92t90.5 -35q65 0 107 43.5t42 118.5q0 55 -35 90t-90 35q-65 0 -107 -43.5t-42 -116.5z" />
<glyph unicode="&#x26;" horiz-adv-x="1183" d="M53 295q0 132 83 216.5t243 150.5q-96 134 -96 253q0 143 99 232.5t249 89.5q143 0 225 -72.5t82 -201.5q0 -219 -287 -345l185 -241q72 110 102 246h174q-40 -214 -174 -383l182 -240h-233l-84 109q-171 -129 -373 -129q-178 0 -277.5 88.5t-99.5 226.5zM256 307 q0 -71 51 -118.5t137 -47.5q144 0 263 92l-240 312q-111 -52 -161 -105.5t-50 -132.5zM475 924q0 -75 70 -166l16 -23q89 40 138 89.5t49 129.5q0 55 -33.5 89t-89.5 34q-66 0 -108 -42t-42 -111z" />
<glyph unicode="'" horiz-adv-x="425" d="M190 866l99 453h178l-129 -453h-148z" />
<glyph unicode="(" horiz-adv-x="753" d="M135 391q0 291 149.5 555.5t385.5 446.5h237q-273 -218 -424 -471t-151 -531q0 -371 274 -674h-215q-119 125 -187.5 295.5t-68.5 378.5z" />
<glyph unicode=")" horiz-adv-x="753" d="M-104 -283q274 218 425.5 471t151.5 531q0 368 -276 674h215q120 -125 189 -295.5t69 -378.5q0 -291 -149.5 -555.5t-387.5 -446.5h-237z" />
<glyph unicode="*" horiz-adv-x="749" d="M164 1169l72 131l184 -110l37 213l147 -31l-47 -211l213 33l16 -147l-213 -25l95 -191l-136 -63l-86 199l-153 -150l-100 107l157 145z" />
<glyph unicode="+" horiz-adv-x="940" d="M88 520l29 158h309l53 309h158l-53 -309h309l-29 -158h-309l-53 -309h-158l53 309h-309z" />
<glyph unicode="," horiz-adv-x="522" d="M-78 -242q173 181 221 449h215q-25 -142 -106.5 -265t-181.5 -184h-148z" />
<glyph unicode="-" horiz-adv-x="727" d="M109 442l32 181h508l-33 -181h-507z" />
<glyph unicode="." horiz-adv-x="522" d="M74 123q0 58 41 99.5t98 41.5q60 0 101.5 -41t41.5 -100t-41.5 -100t-101.5 -41q-57 0 -98 41.5t-41 99.5z" />
<glyph unicode="/" horiz-adv-x="929" d="M-86 -283l936 1676h207l-938 -1676h-205z" />
<glyph unicode="0" horiz-adv-x="1085" d="M96 487q0 209 70.5 380.5t196 270.5t280.5 99q194 0 301 -140.5t107 -367.5q0 -209 -70.5 -380.5t-196 -270t-280.5 -98.5q-195 0 -301.5 140t-106.5 367zM303 487q0 -151 53 -240t154 -89q94 0 170.5 74t120 205t43.5 292q0 151 -53 240.5t-154 89.5q-94 0 -170.5 -74.5 t-120 -205.5t-43.5 -292z" />
<glyph unicode="1" horiz-adv-x="651" d="M121 969l35 190l458 76l-217 -1235h-207l177 1006z" />
<glyph unicode="2" horiz-adv-x="890" d="M-51 0l28 166q287 202 400 297q242 203 278 362q7 32 7 62q0 74 -43 117t-123 43q-174 0 -357 -152l37 211q165 131 373 131q163 0 249.5 -81.5t86.5 -229.5q0 -83 -33.5 -166.5t-89 -156t-138.5 -148.5t-169.5 -139t-194.5 -132h526l-32 -184h-805z" />
<glyph unicode="3" horiz-adv-x="837" d="M-29 84l33 184q135 -114 293 -114q109 0 177.5 51.5t68.5 142.5q0 84 -64.5 128t-204.5 56l29 156q144 11 226.5 70.5t82.5 161.5q0 63 -38.5 99t-112.5 36q-151 0 -316 -129l33 198q139 113 330 113q157 0 239 -77.5t82 -207.5q0 -135 -85.5 -223.5t-215.5 -116.5 q101 -26 162.5 -96t61.5 -172q0 -164 -125.5 -264t-321.5 -100q-104 0 -192 29t-142 75z" />
<glyph unicode="4" horiz-adv-x="1083" d="M29 311l30 170l705 736h211l-131 -740h200l-28 -166h-201l-55 -311h-197l55 311h-589zM260 477h387l88 502z" />
<glyph unicode="5" horiz-adv-x="841" d="M-23 86l33 184q130 -116 295 -116q120 0 190 56t70 163q0 64 -31.5 111t-91.5 75t-128 43t-158 23l143 592h588l-35 -185h-416l-65 -264q87 -14 156.5 -41.5t124 -72t84.5 -112t30 -153.5q0 -183 -126 -296t-333 -113q-99 0 -185 28.5t-145 77.5z" />
<glyph unicode="6" horiz-adv-x="980" d="M68 369q0 69 18 134t53.5 126t69 105.5t84.5 103.5l330 379h241l-311 -359l-111 -106q50 34 121 34q159 0 262 -103t103 -269q0 -188 -124.5 -311t-322.5 -123q-192 0 -302.5 107.5t-110.5 281.5zM266 371q0 -98 61.5 -159.5t159.5 -61.5q106 0 176 71.5t70 188.5 q0 97 -62 158t-161 61q-106 0 -175 -71.5t-69 -186.5z" />
<glyph unicode="7" horiz-adv-x="860" d="M0 0l680 1032h-576l35 185h799l-33 -187l-680 -1030h-225z" />
<glyph unicode="8" horiz-adv-x="960" d="M55 317q0 131 84.5 219.5t202.5 108.5q-66 32 -107.5 96t-41.5 150q0 160 109.5 253t258.5 93q155 0 254.5 -84t99.5 -231q0 -114 -61 -195.5t-154 -108.5q81 -28 136 -102.5t55 -175.5q0 -113 -58.5 -196t-152.5 -123.5t-209 -40.5q-116 0 -208.5 36.5t-150 114 t-57.5 186.5zM262 330q0 -82 58.5 -132.5t150.5 -50.5q90 0 152.5 54t62.5 151q0 85 -58.5 137t-150.5 52q-90 0 -152.5 -56t-62.5 -155zM383 889q0 -72 46.5 -118t117.5 -46q76 0 127 49.5t51 132.5q0 71 -45.5 116.5t-116.5 45.5q-77 0 -128.5 -48.5t-51.5 -131.5z" />
<glyph unicode="9" horiz-adv-x="980" d="M111 803q0 188 124 311t322 123q192 0 303 -108t111 -281q0 -69 -18 -134t-54 -126t-69.5 -105.5t-84.5 -103.5l-329 -379h-242l311 358l111 107q-52 -35 -121 -35q-158 0 -261 103.5t-103 269.5zM305 807q0 -97 62 -158t161 -61q106 0 175 71.5t69 186.5 q0 98 -61.5 159.5t-159.5 61.5q-106 0 -176 -71.5t-70 -188.5z" />
<glyph unicode=":" horiz-adv-x="522" d="M74 123q0 58 41 99.5t98 41.5q60 0 101.5 -41t41.5 -100t-41.5 -100t-101.5 -41q-57 0 -98 41.5t-41 99.5zM182 735q0 58 41.5 100t98.5 42q60 0 101.5 -41.5t41.5 -100.5t-41.5 -100t-101.5 -41q-57 0 -98.5 41.5t-41.5 99.5z" />
<glyph unicode=";" horiz-adv-x="522" d="M-78 -242q173 181 221 449h215q-25 -142 -106.5 -265t-181.5 -184h-148zM182 735q0 58 41.5 100t98.5 42q60 0 101.5 -41.5t41.5 -100.5t-41.5 -100t-101.5 -41q-57 0 -98.5 41.5t-41.5 99.5z" />
<glyph unicode="&#x3c;" horiz-adv-x="702" d="M82 588l4 16l631 354l-33 -190l-340 -178l277 -180l-31 -177z" />
<glyph unicode="=" horiz-adv-x="960" d="M80 385l24 147h777l-25 -147h-776zM129 670l27 147h776l-27 -147h-776z" />
<glyph unicode="&#x3e;" horiz-adv-x="702" d="M45 233l35 191l338 178l-277 180l33 176l508 -354l-4 -16z" />
<glyph unicode="?" horiz-adv-x="804" d="M139 911l39 213q61 50 144 81.5t172 31.5q162 0 251 -82t89 -225q0 -90 -31.5 -160t-90.5 -117.5t-125 -78t-153 -54.5l-22 -139h-191l45 246q68 16 117.5 32t99 39.5t80 52t49.5 68.5t19 90q0 66 -43.5 106t-116.5 40q-168 0 -332 -144zM147 123q0 59 41 100t99 41 q60 0 101.5 -41t41.5 -100t-41.5 -100t-101.5 -41q-58 0 -99 41t-41 100z" />
<glyph unicode="@" horiz-adv-x="1581" d="M94 395q0 160 57 303.5t157.5 249.5t249 168t321.5 62q298 0 466 -153t168 -398q0 -117 -34 -215t-94 -167t-141.5 -117.5t-176.5 -71.5t-199 -23q-209 0 -326.5 98t-117.5 279q0 193 128.5 315.5t336.5 122.5q86 0 168.5 -22.5t140.5 -59.5l-100 -573q119 40 199.5 153 t80.5 281q0 198 -133.5 315t-365.5 117q-193 0 -342 -86.5t-228.5 -237t-79.5 -340.5q0 -123 38.5 -222.5t101 -163t147.5 -106.5t172 -61t180 -18q231 0 420 82l-16 -125q-68 -34 -179 -55t-225 -21q-120 0 -230 24t-210 77.5t-173.5 132.5t-117 196t-43.5 260zM594 410 q0 -114 74 -174.5t196 -63.5q34 0 72 6l84 488q-58 26 -135 26q-133 0 -212 -74.5t-79 -207.5z" />
<glyph unicode="A" horiz-adv-x="1220" d="M-63 0l684 1217h256l262 -1217h-213l-62 289h-547l-159 -289h-221zM410 459h421l-112 559z" />
<glyph unicode="B" horiz-adv-x="1032" d="M82 14l211 1198q142 25 280 25q196 0 307 -78t111 -237q0 -127 -74 -208t-192 -96q114 -17 176 -83t62 -175q0 -182 -153 -281t-411 -99q-173 0 -317 34zM309 164q62 -10 127 -10q141 0 225 50.5t84 155.5q0 84 -58.5 125t-182.5 41h-133zM401 696h105q125 0 200.5 50 t75.5 151q0 80 -55 123t-147 43q-43 0 -117 -8z" />
<glyph unicode="C" horiz-adv-x="1140" d="M113 551q0 207 89 364.5t242 239.5t347 82q222 0 372 -121l-37 -209q-139 142 -335 142q-214 0 -338.5 -137t-124.5 -359q0 -178 103.5 -281.5t268.5 -103.5q195 0 361 115l-39 -226q-136 -77 -326 -77q-267 0 -425 156.5t-158 414.5z" />
<glyph unicode="D" horiz-adv-x="1271" d="M84 20l209 1192q146 25 305 25q293 0 461 -148t168 -417q0 -141 -40.5 -257t-111 -196t-169.5 -134.5t-214 -79.5t-246 -25q-100 0 -201.5 11.5t-160.5 28.5zM319 178q61 -14 150 -14q118 0 214 28t171.5 87t117.5 159t42 234q0 177 -112.5 276t-303.5 99q-52 0 -127 -7z " />
<glyph unicode="E" horiz-adv-x="993" d="M82 0l213 1217h737l-33 -185h-534l-57 -327h493l-31 -183h-493l-62 -338h547l-33 -184h-747z" />
<glyph unicode="F" horiz-adv-x="894" d="M82 0l213 1217h682l-33 -185h-473l-61 -354h438l-33 -184h-440l-84 -494h-209z" />
<glyph unicode="G" horiz-adv-x="1220" d="M113 551q0 157 53.5 287.5t146 217t217 134t265.5 47.5q230 0 387 -113l-37 -215q-59 62 -153 101t-197 39q-214 0 -340.5 -135.5t-126.5 -362.5q0 -173 102 -280t268 -107q103 0 179 33l65 362h207l-88 -500q-169 -79 -363 -79q-269 0 -427 159t-158 412z" />
<glyph unicode="H" horiz-adv-x="1349" d="M82 0l213 1217h209l-90 -512h628l91 512h208l-213 -1217h-208l90 520h-629l-90 -520h-209z" />
<glyph unicode="I" horiz-adv-x="512" d="M82 0l213 1217h209l-213 -1217h-209z" />
<glyph unicode="J" horiz-adv-x="772" d="M-16 78l36 205q92 -115 230 -115q153 0 184 174l154 875h209l-160 -904q-30 -170 -130.5 -251.5t-250.5 -81.5q-84 0 -159 28t-113 70z" />
<glyph unicode="K" horiz-adv-x="1114" d="M82 0l213 1217h209l-213 -1217h-209zM403 600v2l566 615h254l-584 -619l426 -598h-242z" />
<glyph unicode="L" horiz-adv-x="892" d="M82 0l213 1217h209l-182 -1033h495l-31 -184h-704z" />
<glyph unicode="M" horiz-adv-x="1648" d="M8 0l398 1217h251l138 -971l469 971h260l-25 -1217h-205l19 934l-457 -934h-205l-131 936l-307 -936h-205z" />
<glyph unicode="N" horiz-adv-x="1341" d="M82 0l213 1217h207l467 -920l161 920h201l-213 -1217h-196l-478 915l-161 -915h-201z" />
<glyph unicode="O" horiz-adv-x="1388" d="M113 555q0 139 46 263t129 217t206.5 147.5t269.5 54.5q262 0 420.5 -157.5t158.5 -417.5q0 -139 -46 -263t-129 -217t-206 -147.5t-268 -54.5q-262 0 -421.5 157.5t-159.5 417.5zM328 557q0 -173 98.5 -281t267.5 -108q195 0 315.5 138.5t120.5 352.5q0 173 -99 281.5 t-267 108.5q-196 0 -316 -138.5t-120 -353.5z" />
<glyph unicode="P" horiz-adv-x="995" d="M82 0l213 1212q167 25 283 25q208 0 325 -102.5t117 -288.5q0 -115 -43 -202t-118.5 -137.5t-170 -75.5t-205.5 -25q-48 0 -123 6l-69 -412h-209zM393 588q36 -4 103 -4q142 0 227.5 63.5t85.5 194.5q0 100 -64.5 155.5t-171.5 55.5q-57 0 -98 -6z" />
<glyph unicode="Q" horiz-adv-x="1388" d="M113 555q0 139 46 263t129 217t206.5 147.5t269.5 54.5q262 0 420.5 -157.5t158.5 -417.5q0 -155 -55 -289.5t-161 -232t-248 -136.5l239 -293h-244l-219 271q-247 12 -394.5 167.5t-147.5 405.5zM328 557q0 -173 98.5 -281t267.5 -108q195 0 315.5 138.5t120.5 352.5 q0 173 -99 281.5t-267 108.5q-196 0 -316 -138.5t-120 -353.5z" />
<glyph unicode="R" horiz-adv-x="1075" d="M82 0l213 1214q130 21 276 21q221 0 338 -95.5t117 -277.5q0 -154 -89.5 -256.5t-227.5 -136.5l292 -469h-237l-258 432h-141l-76 -432h-207zM395 604h103q141 0 228 62.5t87 191.5q0 102 -66.5 150.5t-179.5 48.5q-48 0 -94 -4z" />
<glyph unicode="S" horiz-adv-x="927" d="M37 115l39 204q67 -70 154.5 -114.5t181.5 -44.5q100 0 158.5 44.5t58.5 131.5q0 37 -12.5 65.5t-41.5 52t-57.5 40t-77.5 38.5q-71 30 -118.5 59t-87 69.5t-58 95t-18.5 125.5q0 159 111 257.5t294 98.5q103 0 192 -33.5t146 -87.5l-37 -207q-60 69 -139 108.5 t-166 39.5q-91 0 -140.5 -42t-49.5 -118q0 -66 43 -104.5t133 -79.5q76 -33 127 -64t91 -73.5t58.5 -97t18.5 -126.5q0 -176 -120.5 -274t-307.5 -98q-117 0 -217.5 39t-157.5 96z" />
<glyph unicode="T" horiz-adv-x="1028" d="M127 1032l33 185h977l-31 -185h-385l-180 -1032h-209l182 1032h-387z" />
<glyph unicode="U" horiz-adv-x="1226" d="M115 334q0 38 10 110l135 773h209l-131 -758q-8 -44 -8 -97q0 -111 70.5 -157.5t199.5 -46.5t231 22l181 1037h209l-207 -1180q-84 -25 -202 -41t-212 -16q-108 0 -194 19t-152.5 60t-102.5 110.5t-36 164.5z" />
<glyph unicode="V" horiz-adv-x="1198" d="M150 1217h215l186 -1010l549 1010h225l-682 -1217h-254z" />
<glyph unicode="W" horiz-adv-x="1669" d="M172 1217h207l72 -992l423 992h205l80 -992l412 992h209l-520 -1217h-267l-61 930l-402 -930h-264z" />
<glyph unicode="X" horiz-adv-x="1134" d="M-61 0l553 645l-297 572h229l213 -435l354 435h238l-502 -596l322 -621h-226l-241 479l-404 -479h-239z" />
<glyph unicode="Y" horiz-adv-x="1107" d="M150 1217h223l217 -555l409 555h236l-569 -752l-82 -465h-209l82 465z" />
<glyph unicode="Z" horiz-adv-x="1044" d="M6 0l31 180l778 852h-610l33 185h862l-31 -181l-786 -852h651l-31 -184h-897z" />
<glyph unicode="[" horiz-adv-x="727" d="M88 -283l295 1676h422l-27 -160h-239l-240 -1358h240l-29 -158h-422z" />
<glyph unicode="\" horiz-adv-x="901" d="M225 1393h185l354 -1676h-184z" />
<glyph unicode="]" horiz-adv-x="727" d="M-25 -283l27 160h240l241 1358h-239l26 158h424l-295 -1676h-424z" />
<glyph unicode="^" horiz-adv-x="890" d="M76 692l401 525h189l217 -525h-187l-143 352l-268 -352h-209z" />
<glyph unicode="_" horiz-adv-x="946" d="M-16 -295l28 162h742l-29 -162h-741z" />
<glyph unicode="`" horiz-adv-x="1024" d="M365 1362h178l114 -311h-172z" />
<glyph unicode="a" horiz-adv-x="915" d="M49 250q0 99 59.5 163.5t156 91.5t229.5 27h122l11 64q4 32 4 49q0 111 -148 111q-150 0 -282 -74l30 178q59 31 138.5 49.5t156.5 18.5q140 0 222.5 -60.5t82.5 -183.5q0 -24 -8 -86l-100 -578q-143 -38 -287 -38q-179 0 -283 66.5t-104 201.5zM248 258q0 -63 51 -95 t137 -32q47 0 109 10l47 256h-100q-55 0 -97 -6.5t-76.5 -22t-52.5 -43t-18 -67.5z" />
<glyph unicode="b" d="M74 70l233 1323h201l-88 -500q86 35 176 35q186 0 301 -114.5t115 -307.5q0 -239 -146.5 -382.5t-406.5 -143.5q-109 0 -218.5 25.5t-166.5 64.5zM295 182q70 -32 172 -32q164 0 253 93.5t89 256.5q0 111 -66 183.5t-178 72.5q-100 0 -176 -39z" />
<glyph unicode="c" horiz-adv-x="894" d="M74 406q0 123 41.5 224t111.5 165t159.5 98.5t188.5 34.5q186 0 299 -94l-34 -193q-112 109 -262 109q-128 0 -213.5 -86.5t-85.5 -249.5q0 -113 69 -185.5t191 -72.5q69 0 130 16.5t136 60.5l-37 -196q-111 -57 -260 -57q-191 0 -312.5 117t-121.5 309z" />
<glyph unicode="d" horiz-adv-x="1073" d="M72 412q0 232 149.5 374t386.5 142q124 0 205 -43l90 508h201l-242 -1362q-158 -51 -313 -51q-222 0 -349.5 116t-127.5 316zM276 416q0 -118 73 -192t200 -74q79 0 139 16l94 543q-67 43 -174 43q-152 0 -242 -89t-90 -247z" />
<glyph unicode="e" horiz-adv-x="989" d="M74 406q0 222 135 372t354 150q96 0 169 -29t115.5 -79.5t63.5 -113.5t21 -137q0 -85 -29 -159h-631v-29q6 -109 78.5 -170t186.5 -61q87 0 158.5 19.5t154.5 66.5l-33 -187q-126 -69 -303 -69q-201 0 -320.5 114.5t-119.5 311.5zM287 543h450q2 14 2 35q0 83 -47 134.5 t-135 51.5q-100 0 -170 -59t-100 -162z" />
<glyph unicode="f" horiz-adv-x="628" d="M78 737l31 170h141l33 178q27 164 116 246t232 82q116 0 190 -49l-35 -178q-59 47 -145 47q-68 0 -107.5 -38.5t-56.5 -129.5l-26 -158h231l-31 -170h-231l-129 -737h-201l131 737h-143z" />
<glyph unicode="g" horiz-adv-x="1058" d="M63 -297l31 178q151 -100 297 -100q112 0 176.5 52t85.5 165l9 39q-65 -35 -173 -35q-189 0 -301 105.5t-112 298.5q0 236 148.5 379t402.5 143q109 0 206.5 -27t167.5 -70l-149 -843q-18 -105 -58.5 -179.5t-102 -117t-134.5 -61.5t-166 -19q-96 0 -185 25.5t-143 66.5z M281 418q0 -114 65 -182t180 -68q76 0 164 35l92 516q-64 33 -164 33q-159 0 -248 -88.5t-89 -245.5z" />
<glyph unicode="h" horiz-adv-x="1064" d="M66 0l243 1393h201l-90 -512q41 19 107 33t124 14q147 0 231.5 -63.5t84.5 -196.5q0 -48 -15 -125l-94 -543h-201l97 541q8 41 8 80q0 65 -40.5 94.5t-123.5 29.5q-103 0 -211 -38l-123 -707h-198z" />
<glyph unicode="i" horiz-adv-x="481" d="M66 0l157 907h201l-160 -907h-198zM242 1194q0 54 37 91.5t90 37.5t90 -37.5t37 -91.5q0 -51 -37.5 -88t-89.5 -37t-89.5 37t-37.5 88z" />
<glyph unicode="j" horiz-adv-x="481" d="M-279 -338l33 168q62 -49 146 -49q64 0 101.5 33t51.5 118l170 975h201l-176 -1001q-52 -295 -334 -295q-119 0 -193 51zM242 1194q0 54 37 91.5t90 37.5t90 -37.5t37 -91.5q0 -51 -37.5 -88t-89.5 -37t-89.5 37t-37.5 88z" />
<glyph unicode="k" horiz-adv-x="985" d="M66 0l243 1393h201l-246 -1393h-198zM360 494l439 413h258l-471 -422l325 -485h-223z" />
<glyph unicode="l" horiz-adv-x="481" d="M66 0l243 1393h201l-246 -1393h-198z" />
<glyph unicode="m" horiz-adv-x="1562" d="M66 0l147 848q217 80 401 80q164 0 240 -70q174 70 309 70q149 0 225 -62t76 -198q0 -62 -10 -123l-96 -545h-201l98 543q7 36 7 80q0 65 -35 95t-109 30q-92 0 -205 -37q9 -41 9 -64q0 -38 -11 -102l-96 -545h-201l99 543q6 31 6 80q0 65 -35 95t-109 30q-77 0 -186 -33 l-125 -715h-198z" />
<glyph unicode="n" horiz-adv-x="1064" d="M66 0l147 848q240 80 414 80q340 0 340 -260q0 -43 -13 -123l-96 -545h-201l97 541q8 44 8 82q0 122 -164 122q-95 0 -209 -32l-125 -713h-198z" />
<glyph unicode="o" d="M74 410q0 143 59.5 260t175 187.5t266.5 70.5q196 0 315.5 -119.5t119.5 -310.5q0 -144 -59.5 -261t-175.5 -187t-267 -70q-198 0 -316 119t-118 311zM274 412q0 -116 65 -190.5t173 -74.5q131 0 213 98t82 249q0 116 -64.5 190t-171.5 74q-131 0 -214 -97.5t-83 -248.5z " />
<glyph unicode="p" horiz-adv-x="1085" d="M0 -369l215 1223q170 74 348 74q216 0 334.5 -114.5t118.5 -311.5q0 -235 -144.5 -378.5t-392.5 -143.5q-65 0 -121 14.5t-88 34.5l-69 -398h-201zM299 197q73 -47 176 -47q160 0 249 92.5t89 251.5q0 116 -68 185t-186 69q-89 0 -168 -29z" />
<glyph unicode="q" horiz-adv-x="1067" d="M72 406q0 238 152 380t407 142q206 0 370 -101l-208 -1196h-201l65 369q-53 -20 -131 -20q-207 0 -330.5 114.5t-123.5 311.5zM276 416q0 -119 72 -192.5t195 -73.5q77 0 145 22l94 543q-69 37 -166 37q-160 0 -250 -89t-90 -247z" />
<glyph unicode="r" horiz-adv-x="704" d="M66 0l145 836q74 41 171.5 62.5t186.5 21.5t174 -23l-32 -186q-61 22 -142 22q-95 0 -182 -31l-123 -702h-198z" />
<glyph unicode="s" horiz-adv-x="794" d="M33 88l33 184q136 -129 276 -129q68 0 107.5 28t39.5 87q0 40 -31 65.5t-98 53.5q-56 21 -94.5 41.5t-74 51.5t-53 75t-17.5 100q0 131 93.5 207t242.5 76q177 0 276 -90l-33 -183q-107 107 -243 107q-67 0 -102.5 -26t-35.5 -77q0 -40 29 -64t92 -52q124 -45 187 -107.5 t63 -167.5q0 -138 -96 -213t-250 -75q-97 0 -179.5 29.5t-131.5 78.5z" />
<glyph unicode="t" horiz-adv-x="692" d="M68 737l28 170h137l39 221h199l-39 -221h248l-31 -170h-246l-75 -426q-9 -56 -9 -69q0 -88 99 -88q80 0 184 53l-33 -178q-104 -49 -209 -49q-110 0 -176.5 52t-66.5 167q0 37 6 86l82 452h-137z" />
<glyph unicode="u" horiz-adv-x="1019" d="M86 248q0 50 10 104l99 555h198l-98 -565q-6 -34 -6 -55q0 -74 47.5 -108t142.5 -34q76 0 160 19l131 743h199l-156 -880q-185 -47 -346 -47q-381 0 -381 268z" />
<glyph unicode="v" horiz-adv-x="944" d="M86 907h195l125 -712l393 712h213l-523 -907h-231z" />
<glyph unicode="w" horiz-adv-x="1372" d="M86 907h197l63 -698l330 698h174l59 -698l326 698h205l-441 -907h-227l-59 641l-307 -641h-228z" />
<glyph unicode="x" horiz-adv-x="927" d="M-74 0l430 473l-247 434h213l167 -305l259 305h227l-400 -446l269 -461h-213l-185 330l-292 -330h-228z" />
<glyph unicode="y" horiz-adv-x="960" d="M88 -369l195 342l-195 934h201l135 -710l391 710h213l-735 -1276h-205z" />
<glyph unicode="z" horiz-adv-x="862" d="M-6 0l29 164l571 575h-453l29 168h694l-30 -168l-574 -571h498l-29 -168h-735z" />
<glyph unicode="{" horiz-adv-x="749" d="M82 475l29 160h57q158 0 192 182l50 279q26 150 103.5 223.5t213.5 73.5h96l-26 -158h-56q-65 0 -99 -33.5t-46 -105.5l-47 -271q-23 -124 -93.5 -192.5t-172.5 -77.5q74 -6 125 -60t51 -147q0 -50 -30 -195.5t-30 -185.5q0 -49 23.5 -70.5t73.5 -21.5h61l-29 -158h-73 q-117 0 -179.5 54.5t-62.5 160.5q0 52 30.5 207.5t30.5 206.5q0 129 -135 129h-57z" />
<glyph unicode="|" horiz-adv-x="575" d="M76 -283l295 1676h184l-295 -1676h-184z" />
<glyph unicode="}" horiz-adv-x="749" d="M-23 -283l27 158h55q65 0 99.5 33.5t46.5 105.5l47 271q23 124 93.5 192.5t172.5 77.5q-74 6 -125 60t-51 147q0 50 29.5 195t29.5 186q0 49 -23 70.5t-73 21.5h-61l28 158h74q117 0 179.5 -54.5t62.5 -160.5q0 -52 -31 -207.5t-31 -206.5q0 -129 136 -129h57l-29 -160 h-57q-159 0 -193 -182l-49 -279q-26 -150 -103.5 -223.5t-213.5 -73.5h-97z" />
<glyph unicode="~" horiz-adv-x="899" d="M104 408q23 131 89.5 204.5t160.5 73.5q40 0 76 -18.5t57 -41t47 -41t50 -18.5q35 0 59 28.5t33 84.5h155q-23 -133 -88 -207t-159 -74q-40 0 -76 19t-57 41.5t-47 41.5t-50 19q-35 0 -60 -28.5t-34 -83.5h-156z" />
<glyph unicode="&#xa1;" horiz-adv-x="538" d="M51 -303l148 838h200l-147 -838h-201zM197 793q0 58 42 99.5t101 41.5q58 0 98.5 -41t40.5 -100t-40.5 -100.5t-98.5 -41.5q-59 0 -101 42t-42 100z" />
<glyph unicode="&#xa2;" horiz-adv-x="894" d="M74 406q0 116 36.5 212.5t100 160.5t144.5 101.5t173 45.5l31 178h160l-33 -184q111 -21 188 -86l-34 -193q-112 109 -262 109q-128 0 -213.5 -86.5t-85.5 -249.5q0 -113 69 -185.5t191 -72.5q69 0 130 16.5t136 60.5l-37 -196q-105 -54 -248 -57l-31 -175h-159l35 195 q-133 39 -212 147t-79 259z" />
<glyph unicode="&#xa3;" horiz-adv-x="940" d="M6 0l31 180q93 47 141.5 122t71.5 208h-156l29 164h156l28 168q36 199 144 297t266 98q85 0 153.5 -26t106.5 -70l-39 -209q-81 112 -215 112q-91 0 -145 -53.5t-74 -165.5l-27 -151h285l-29 -164h-282l-2 -10q-41 -227 -189 -320h586l-33 -180h-807z" />
<glyph unicode="&#xa4;" horiz-adv-x="1181" d="M104 252l162 147q-49 87 -49 193q0 160 98 278l-127 144l95 84l125 -142q109 72 241 72q135 0 234 -76l168 150l79 -90l-165 -148q59 -89 59 -207q0 -166 -104 -286l129 -140l-97 -84l-125 142q-108 -68 -235 -68q-148 0 -248 84l-162 -143zM393 606q0 -98 59 -159.5 t152 -61.5q102 0 174 74.5t72 183.5q0 98 -59 159.5t-152 61.5q-102 0 -174 -74.5t-72 -183.5z" />
<glyph unicode="&#xa5;" horiz-adv-x="1069" d="M106 225l23 121h274l21 117h-274l18 121h227l-239 633h217l186 -537l371 537h231l-465 -633h228l-21 -121h-278l-19 -117h277l-23 -121h-274l-39 -225h-203l39 225h-277z" />
<glyph unicode="&#xa6;" horiz-adv-x="575" d="M76 -283l123 699h184l-123 -699h-184zM248 694l123 699h184l-123 -699h-184z" />
<glyph unicode="&#xa7;" horiz-adv-x="940" d="M80 498q0 105 66 182t169 106q-69 75 -69 172q0 128 95 203.5t241 75.5q174 0 278 -94l-39 -176q-101 106 -241 106q-65 0 -101.5 -26.5t-36.5 -73.5q0 -44 38.5 -80t119.5 -74q135 -65 201.5 -136t66.5 -183q0 -107 -65.5 -184t-169.5 -107q69 -72 69 -170 q0 -128 -94.5 -203.5t-240.5 -75.5q-174 0 -279 95l39 176q102 -107 242 -107q64 0 100.5 27t36.5 74q0 44 -37.5 79.5t-118.5 73.5q-136 65 -203 136.5t-67 183.5zM266 524q0 -59 37.5 -95t140.5 -93l50 -25q85 7 136.5 53.5t51.5 110.5q0 59 -39 98t-137 89l-49 24 q-85 -9 -138 -55t-53 -107z" />
<glyph unicode="&#xa8;" horiz-adv-x="1024" d="M213 1180q0 52 36 87.5t87 35.5t87 -35.5t36 -87.5q0 -50 -36 -86.5t-87 -36.5t-87 36.5t-36 86.5zM565 1180q0 52 36 87.5t87 35.5t87 -35.5t36 -87.5q0 -50 -36 -86.5t-87 -36.5t-87 36.5t-36 86.5z" />
<glyph unicode="&#xa9;" horiz-adv-x="1429" d="M119 563q0 186 87 340.5t239.5 244t336.5 89.5q169 0 303.5 -76.5t208.5 -209.5t74 -298q0 -186 -87 -340.5t-239.5 -243.5t-336.5 -89q-127 0 -236.5 44.5t-186 122t-120 185.5t-43.5 231zM203 563q0 -224 140.5 -366t361.5 -142q163 0 295.5 76.5t208 213.5t75.5 308 q0 224 -140.5 366t-361.5 142q-163 0 -295.5 -76.5t-208 -213.5t-75.5 -308zM379 582q0 189 119.5 305.5t302.5 116.5q142 0 237 -78l-30 -172q-87 90 -209 90q-111 0 -177.5 -69.5t-66.5 -186.5q0 -98 57 -156.5t148 -58.5q123 0 219 69l-31 -180q-82 -49 -203 -49 q-168 0 -267 100t-99 269z" />
<glyph unicode="&#xaa;" horiz-adv-x="696" d="M82 711q0 115 93.5 170t252.5 55h96l4 27q4 36 4 43q0 86 -114 86t-221 -58l26 152q94 51 230 51q115 0 183.5 -51.5t68.5 -147.5q0 -36 -7 -82l-75 -424q-120 -30 -238 -30q-139 0 -221 52t-82 157zM254 721q0 -45 36.5 -67.5t98.5 -22.5q41 0 82 6l33 184h-74 q-176 0 -176 -100z" />
<glyph unicode="&#xab;" horiz-adv-x="972" d="M98 438l305 326h199l-303 -328l199 -319h-195zM430 438l307 326h197l-301 -328l198 -319h-196z" />
<glyph unicode="&#xad;" horiz-adv-x="727" d="M109 442l32 181h508l-33 -181h-507z" />
<glyph unicode="&#xae;" horiz-adv-x="931" d="M135 821q0 175 119 295.5t295 120.5q160 0 262 -103t102 -257q0 -176 -118.5 -296t-294.5 -120q-160 0 -262.5 103t-102.5 257zM217 821q0 -124 79 -206.5t204 -82.5q141 0 236 99.5t95 245.5q0 124 -78.5 206t-203.5 82q-141 0 -236.5 -99t-95.5 -245zM350 664l68 374 q82 15 117 15q75 0 117 -33.5t42 -97.5q0 -49 -26 -81.5t-64 -47.5l78 -129h-111l-63 114h-35l-20 -114h-103zM489 862h27q74 0 74 53q0 43 -53 43q-21 0 -33 -2z" />
<glyph unicode="&#xaf;" horiz-adv-x="1024" d="M268 1079l27 152h461l-27 -152h-461z" />
<glyph unicode="&#xb0;" horiz-adv-x="604" d="M113 971q0 113 75 188.5t191 75.5q103 0 168 -65t65 -164q0 -111 -75 -187t-189 -76q-104 0 -169.5 65t-65.5 163zM236 975q0 -51 31 -85t83 -34q65 0 103.5 42t38.5 106q0 49 -31.5 82.5t-85.5 33.5q-64 0 -101.5 -40.5t-37.5 -104.5z" />
<glyph unicode="&#xb1;" horiz-adv-x="940" d="M43 180l27 156h757l-28 -156h-756zM127 649l27 156h301l39 229h155l-39 -229h301l-28 -156h-301l-39 -227h-156l39 227h-299z" />
<glyph unicode="&#xb2;" horiz-adv-x="569" d="M53 508l23 131q60 41 91 63t80.5 59t76 62.5t55 57.5t41 61t12.5 57q0 37 -21.5 57.5t-60.5 20.5q-91 0 -198 -80l28 156q96 74 230 74q98 0 150 -49.5t52 -135.5q0 -59 -26.5 -115t-75.5 -105t-102.5 -88.5t-124.5 -82.5h280l-22 -143h-488z" />
<glyph unicode="&#xb3;" horiz-adv-x="536" d="M57 555l25 145q86 -65 172 -65q50 0 82.5 21t32.5 61q0 78 -142 84l21 119q155 6 155 102q0 29 -18.5 46t-52.5 17q-80 0 -174 -63l24 147q81 58 201 58q93 0 142.5 -46t49.5 -124q0 -77 -46 -127t-115 -66q118 -44 118 -155q0 -99 -75 -156t-193 -57q-125 0 -207 59z " />
<glyph unicode="&#xb4;" horiz-adv-x="1024" d="M299 1051l225 311h201l-229 -311h-197z" />
<glyph unicode="&#xb5;" horiz-adv-x="1019" d="M-27 -369l230 1276h198l-98 -565q-6 -34 -6 -55q0 -74 47.5 -108t142.5 -34q76 0 160 19l131 743h199l-156 -880q-185 -47 -334 -47q-170 0 -235 65l-74 -414h-205z" />
<glyph unicode="&#xb6;" horiz-adv-x="1038" d="M121 829q0 97 39.5 172.5t107 121.5t153.5 70t183 24h166l-252 -1434h-166l127 723q-148 8 -253 93.5t-105 229.5zM629 -217l252 1434h163l-251 -1434h-164z" />
<glyph unicode="&#xb7;" horiz-adv-x="530" d="M137 532q0 58 41 100t98 42q60 0 102 -41.5t42 -100.5t-42 -100t-102 -41q-57 0 -98 41.5t-41 99.5z" />
<glyph unicode="&#xb8;" horiz-adv-x="1024" d="M326 -299q83 72 138.5 159t65.5 173h168q-12 -96 -67.5 -191.5t-122.5 -140.5h-182z" />
<glyph unicode="&#xb9;" horiz-adv-x="425" d="M129 1030l29 150l303 47l-127 -719h-166l96 539z" />
<glyph unicode="&#xba;" horiz-adv-x="829" d="M119 842q0 165 105.5 279t277.5 114q156 0 249 -93.5t93 -246.5q0 -165 -105.5 -279t-277.5 -114q-156 0 -249 93.5t-93 246.5zM293 842q0 -83 45.5 -136t122.5 -53q93 0 151 68.5t58 173.5q0 83 -45.5 135.5t-122.5 52.5q-92 0 -150.5 -68t-58.5 -173z" />
<glyph unicode="&#xbb;" horiz-adv-x="972" d="M43 117l301 327l-199 320h197l203 -322l-305 -325h-197zM375 117l303 327l-199 320h195l205 -322l-306 -325h-198z" />
<glyph unicode="&#xbc;" horiz-adv-x="1476" d="M156 0l921 1217h160l-922 -1217h-159zM166 1030l29 150l303 47l-127 -719h-166l96 539zM731 162l23 131l403 416h162l-76 -422h100l-22 -125h-100l-29 -162h-154l29 162h-336zM893 287h197l43 248z" />
<glyph unicode="&#xbd;" horiz-adv-x="1488" d="M156 0l921 1217h160l-922 -1217h-159zM166 1030l29 150l303 47l-127 -719h-166l96 539zM817 0l25 131q87 60 134.5 95.5t106.5 87t86 95.5t27 85q0 75 -80 75q-47 0 -100.5 -22.5t-97.5 -57.5l26 156q98 76 230 76q98 0 150 -49t52 -135q0 -60 -26.5 -116.5t-75.5 -106 t-102.5 -89.5t-124.5 -82h282l-24 -143h-488z" />
<glyph unicode="&#xbe;" horiz-adv-x="1585" d="M102 555l25 145q86 -65 172 -65q50 0 82.5 21t32.5 61q0 78 -142 84l21 119q75 3 115.5 29t40.5 73q0 29 -19 46t-53 17q-80 0 -174 -63l24 147q81 58 201 58q93 0 143 -46t50 -124q0 -77 -46.5 -127t-115.5 -66q119 -45 119 -155q0 -99 -75 -156t-194 -57 q-125 0 -207 59zM262 0l922 1217h159l-921 -1217h-160zM840 162l22 131l404 416h161l-75 -422h100l-22 -125h-101l-29 -162h-153l29 162h-336zM1001 287h197l43 248z" />
<glyph unicode="&#xbf;" horiz-adv-x="804" d="M6 -14q0 73 22 133t57.5 102t89 76.5t108 56.5t123.5 41l22 140h190l-45 -246q-68 -16 -117.5 -32t-98.5 -40t-79.5 -52.5t-49.5 -68.5t-19 -90q0 -66 43.5 -105.5t116.5 -39.5q169 0 331 143l-38 -213q-61 -50 -144 -81.5t-172 -31.5q-162 0 -251 82.5t-89 225.5z M412 793q0 59 41.5 100t101.5 41q58 0 98.5 -41t40.5 -100t-40.5 -100.5t-98.5 -41.5q-60 0 -101.5 41.5t-41.5 100.5z" />
<glyph unicode="&#xc0;" horiz-adv-x="1220" d="M-63 0l684 1217h256l262 -1217h-213l-62 289h-547l-159 -289h-221zM410 459h421l-112 559zM561 1608h180l105 -289h-172z" />
<glyph unicode="&#xc1;" horiz-adv-x="1220" d="M-63 0l684 1217h256l262 -1217h-213l-62 289h-547l-159 -289h-221zM410 459h421l-112 559zM668 1319l206 289h201l-213 -289h-194z" />
<glyph unicode="&#xc2;" horiz-adv-x="1220" d="M-63 0l684 1217h256l262 -1217h-213l-62 289h-547l-159 -289h-221zM410 459h421l-112 559zM455 1311l288 293h129l185 -293h-168l-98 151l-152 -151h-184z" />
<glyph unicode="&#xc3;" horiz-adv-x="1220" d="M-63 0l684 1217h256l262 -1217h-213l-62 289h-547l-159 -289h-221zM410 459h421l-112 559zM471 1313q22 120 79 188t138 68q34 0 66 -17.5t51.5 -38t43 -38t44.5 -17.5q63 0 80 105h135q-22 -120 -78 -188t-137 -68q-34 0 -66 17t-51.5 38t-43 38t-44.5 17 q-65 0 -82 -104h-135z" />
<glyph unicode="&#xc4;" horiz-adv-x="1220" d="M-63 0l684 1217h256l262 -1217h-213l-62 289h-547l-159 -289h-221zM410 459h421l-112 559zM473 1423q0 52 36 87.5t87 35.5t87 -35.5t36 -87.5q0 -50 -36 -86.5t-87 -36.5t-87 36.5t-36 86.5zM825 1423q0 52 36 87.5t87 35.5t87 -35.5t36 -87.5q0 -50 -36 -86.5 t-87 -36.5t-87 36.5t-36 86.5z" />
<glyph unicode="&#xc5;" horiz-adv-x="1220" d="M-63 0l684 1217h256l262 -1217h-213l-62 289h-547l-159 -289h-221zM410 459h421l-112 559zM596 1460q0 85 57.5 141t145.5 56q83 0 131.5 -49t48.5 -125q0 -85 -57 -141t-146 -56q-82 0 -131 49.5t-49 124.5zM702 1462q0 -32 21 -54t57 -22q41 0 67.5 26t26.5 69 q0 32 -21 53.5t-58 21.5q-40 0 -66.5 -25.5t-26.5 -68.5z" />
<glyph unicode="&#xc6;" horiz-adv-x="1744" d="M-63 0l968 1217h879l-33 -185h-530l-58 -327h490l-31 -183h-489l-62 -338h543l-33 -184h-747l51 289h-479l-232 -289h-237zM539 459h374l107 598z" />
<glyph unicode="&#xc7;" horiz-adv-x="1140" d="M113 551q0 207 89 364.5t242 239.5t347 82q222 0 372 -121l-37 -209q-139 142 -335 142q-214 0 -338.5 -137t-124.5 -359q0 -178 103.5 -281.5t268.5 -103.5q195 0 361 115l-39 -226q-123 -70 -295 -77q-22 -85 -72 -162.5t-108 -116.5h-182q157 137 196 291 q-209 38 -328.5 187t-119.5 372z" />
<glyph unicode="&#xc8;" horiz-adv-x="993" d="M82 0l213 1217h737l-33 -185h-534l-57 -327h493l-31 -183h-493l-62 -338h547l-33 -184h-747zM481 1608h181l104 -289h-172z" />
<glyph unicode="&#xc9;" horiz-adv-x="993" d="M82 0l213 1217h737l-33 -185h-534l-57 -327h493l-31 -183h-493l-62 -338h547l-33 -184h-747zM590 1319l207 289h200l-213 -289h-194z" />
<glyph unicode="&#xca;" horiz-adv-x="993" d="M82 0l213 1217h737l-33 -185h-534l-57 -327h493l-31 -183h-493l-62 -338h547l-33 -184h-747zM377 1311l289 293h129l184 -293h-168l-98 151l-152 -151h-184z" />
<glyph unicode="&#xcb;" horiz-adv-x="993" d="M82 0l213 1217h737l-33 -185h-534l-57 -327h493l-31 -183h-493l-62 -338h547l-33 -184h-747zM410 1423q0 52 35.5 87.5t86.5 35.5t87 -35.5t36 -87.5q0 -50 -36 -86.5t-87 -36.5t-86.5 36.5t-35.5 86.5zM762 1423q0 52 36 87.5t87 35.5t87 -35.5t36 -87.5 q0 -50 -36 -86.5t-87 -36.5t-87 36.5t-36 86.5z" />
<glyph unicode="&#xcc;" horiz-adv-x="512" d="M82 0l213 1217h209l-213 -1217h-209zM209 1608h180l105 -289h-172z" />
<glyph unicode="&#xcd;" horiz-adv-x="512" d="M82 0l213 1217h209l-213 -1217h-209zM315 1319l207 289h201l-213 -289h-195z" />
<glyph unicode="&#xce;" horiz-adv-x="512" d="M82 0l213 1217h209l-213 -1217h-209zM104 1311l289 293h129l185 -293h-168l-99 151l-151 -151h-185z" />
<glyph unicode="&#xcf;" horiz-adv-x="512" d="M82 0l213 1217h209l-213 -1217h-209zM137 1423q0 52 36 87.5t87 35.5t87 -35.5t36 -87.5q0 -50 -36 -86.5t-87 -36.5t-87 36.5t-36 86.5zM489 1423q0 52 36 87.5t87 35.5t87 -35.5t36 -87.5q0 -50 -36 -86.5t-87 -36.5t-87 36.5t-36 86.5z" />
<glyph unicode="&#xd0;" horiz-adv-x="1286" d="M70 528l28 174h119l90 510q146 25 305 25q293 0 461 -148t168 -417q0 -141 -40 -257t-111 -196t-169.5 -134.5t-213.5 -79.5t-246 -25q-100 0 -202 11.5t-161 28.5l88 508h-116zM334 178q61 -14 149 -14q118 0 214 28t171.5 87t117.5 159t42 234q0 177 -112.5 276 t-303.5 99q-52 0 -127 -7l-59 -338h246l-31 -174h-246z" />
<glyph unicode="&#xd1;" horiz-adv-x="1341" d="M82 0l213 1217h207l467 -920l161 920h201l-213 -1217h-196l-478 915l-161 -915h-201zM539 1313q22 120 79 188t138 68q34 0 66 -17.5t51.5 -38t43 -38t44.5 -17.5q61 0 79 105h136q-22 -120 -78 -188t-137 -68q-34 0 -66 17t-51.5 38t-43 38t-44.5 17q-65 0 -82 -104 h-135z" />
<glyph unicode="&#xd2;" horiz-adv-x="1388" d="M113 555q0 139 46 263t129 217t206.5 147.5t269.5 54.5q262 0 420.5 -157.5t158.5 -417.5q0 -139 -46 -263t-129 -217t-206 -147.5t-268 -54.5q-262 0 -421.5 157.5t-159.5 417.5zM328 557q0 -173 98.5 -281t267.5 -108q195 0 315.5 138.5t120.5 352.5q0 173 -99 281.5 t-267 108.5q-196 0 -316 -138.5t-120 -353.5zM616 1608h181l104 -289h-172z" />
<glyph unicode="&#xd3;" horiz-adv-x="1388" d="M113 555q0 139 46 263t129 217t206.5 147.5t269.5 54.5q262 0 420.5 -157.5t158.5 -417.5q0 -139 -46 -263t-129 -217t-206 -147.5t-268 -54.5q-262 0 -421.5 157.5t-159.5 417.5zM328 557q0 -173 98.5 -281t267.5 -108q195 0 315.5 138.5t120.5 352.5q0 173 -99 281.5 t-267 108.5q-196 0 -316 -138.5t-120 -353.5zM735 1319l207 289h201l-213 -289h-195z" />
<glyph unicode="&#xd4;" horiz-adv-x="1388" d="M113 555q0 139 46 263t129 217t206.5 147.5t269.5 54.5q262 0 420.5 -157.5t158.5 -417.5q0 -139 -46 -263t-129 -217t-206 -147.5t-268 -54.5q-262 0 -421.5 157.5t-159.5 417.5zM328 557q0 -173 98.5 -281t267.5 -108q195 0 315.5 138.5t120.5 352.5q0 173 -99 281.5 t-267 108.5q-196 0 -316 -138.5t-120 -353.5zM514 1311l289 293h129l184 -293h-168l-98 151l-152 -151h-184z" />
<glyph unicode="&#xd5;" horiz-adv-x="1388" d="M113 555q0 139 46 263t129 217t206.5 147.5t269.5 54.5q262 0 420.5 -157.5t158.5 -417.5q0 -139 -46 -263t-129 -217t-206 -147.5t-268 -54.5q-262 0 -421.5 157.5t-159.5 417.5zM328 557q0 -173 98.5 -281t267.5 -108q195 0 315.5 138.5t120.5 352.5q0 173 -99 281.5 t-267 108.5q-196 0 -316 -138.5t-120 -353.5zM528 1313q22 120 79 188t138 68q34 0 66 -17.5t51.5 -38t43 -38t44.5 -17.5q62 0 80 105h135q-22 -120 -78 -188t-137 -68q-34 0 -66 17t-51.5 38t-43 38t-44.5 17q-64 0 -81 -104h-136z" />
<glyph unicode="&#xd6;" horiz-adv-x="1388" d="M113 555q0 139 46 263t129 217t206.5 147.5t269.5 54.5q262 0 420.5 -157.5t158.5 -417.5q0 -139 -46 -263t-129 -217t-206 -147.5t-268 -54.5q-262 0 -421.5 157.5t-159.5 417.5zM328 557q0 -173 98.5 -281t267.5 -108q195 0 315.5 138.5t120.5 352.5q0 173 -99 281.5 t-267 108.5q-196 0 -316 -138.5t-120 -353.5zM543 1423q0 52 36 87.5t87 35.5t86.5 -35.5t35.5 -87.5q0 -50 -35.5 -86.5t-86.5 -36.5t-87 36.5t-36 86.5zM895 1423q0 52 36 87.5t87 35.5t87 -35.5t36 -87.5q0 -50 -36 -86.5t-87 -36.5t-87 36.5t-36 86.5z" />
<glyph unicode="&#xd7;" horiz-adv-x="808" d="M63 375l265 225l-187 225l123 103l182 -226l265 226l90 -109l-264 -225l184 -223l-119 -103l-186 224l-262 -224z" />
<glyph unicode="&#xd8;" horiz-adv-x="1409" d="M80 0l164 178q-121 149 -121 377q0 139 46 263t129 217t206.5 147.5t269.5 54.5q208 0 350 -102l78 82h176l-155 -168q131 -153 131 -387q0 -139 -46 -263t-129 -217t-206 -147.5t-268 -54.5q-219 0 -367 108l-82 -88h-176zM332 557q0 -129 57 -223l602 655 q-92 64 -217 64q-196 0 -319 -140.5t-123 -355.5zM473 236q93 -72 232 -72q195 0 317.5 140.5t122.5 354.5q0 138 -64 236z" />
<glyph unicode="&#xd9;" horiz-adv-x="1226" d="M115 334q0 38 10 110l135 773h209l-131 -758q-8 -44 -8 -97q0 -111 70.5 -157.5t199.5 -46.5t231 22l181 1037h209l-207 -1180q-84 -25 -202 -41t-212 -16q-108 0 -194 19t-152.5 60t-102.5 110.5t-36 164.5zM551 1608h180l105 -289h-172z" />
<glyph unicode="&#xda;" horiz-adv-x="1226" d="M115 334q0 38 10 110l135 773h209l-131 -758q-8 -44 -8 -97q0 -111 70.5 -157.5t199.5 -46.5t231 22l181 1037h209l-207 -1180q-84 -25 -202 -41t-212 -16q-108 0 -194 19t-152.5 60t-102.5 110.5t-36 164.5zM657 1319l207 289h201l-213 -289h-195z" />
<glyph unicode="&#xdb;" horiz-adv-x="1226" d="M115 334q0 38 10 110l135 773h209l-131 -758q-8 -44 -8 -97q0 -111 70.5 -157.5t199.5 -46.5t231 22l181 1037h209l-207 -1180q-84 -25 -202 -41t-212 -16q-108 0 -194 19t-152.5 60t-102.5 110.5t-36 164.5zM446 1311l289 293h129l185 -293h-168l-99 151l-151 -151h-185 z" />
<glyph unicode="&#xdc;" horiz-adv-x="1226" d="M115 334q0 38 10 110l135 773h209l-131 -758q-8 -44 -8 -97q0 -111 70.5 -157.5t199.5 -46.5t231 22l181 1037h209l-207 -1180q-84 -25 -202 -41t-212 -16q-108 0 -194 19t-152.5 60t-102.5 110.5t-36 164.5zM477 1423q0 52 36 87.5t87 35.5t87 -35.5t36 -87.5 q0 -50 -36 -86.5t-87 -36.5t-87 36.5t-36 86.5zM829 1423q0 52 36 87.5t87 35.5t87 -35.5t36 -87.5q0 -50 -36 -86.5t-87 -36.5t-87 36.5t-36 86.5z" />
<glyph unicode="&#xdd;" horiz-adv-x="1107" d="M150 1217h223l217 -555l409 555h236l-569 -752l-82 -465h-209l82 465zM610 1319l207 289h201l-213 -289h-195z" />
<glyph unicode="&#xde;" horiz-adv-x="995" d="M82 0l213 1217h209l-33 -193q46 4 68 4q215 0 330.5 -101.5t115.5 -283.5q0 -117 -43 -205.5t-119 -139.5t-169.5 -76t-204.5 -25q-54 0 -123 6l-35 -203h-209zM356 379q36 -4 103 -4q143 0 228 62.5t85 195.5q0 100 -70 155.5t-180 55.5q-44 0 -84 -6z" />
<glyph unicode="&#xdf;" horiz-adv-x="1110" d="M66 0l174 1004q35 197 146 303t282 106q158 0 248 -80t90 -203q0 -61 -24 -113t-58 -87.5t-68 -66t-58 -61.5t-24 -61q0 -28 19 -57t48 -53t62 -56.5t62 -66.5t48 -85t19 -110q0 -148 -101 -240.5t-255 -92.5q-174 0 -264 90l30 180q107 -107 224 -107q79 0 125.5 44.5 t46.5 125.5q0 42 -27.5 81t-66 72t-77.5 68t-66.5 83.5t-27.5 103.5q0 52 24.5 98t59.5 79.5t70 65.5t59.5 70.5t24.5 79.5q0 57 -39.5 93t-109.5 36q-86 0 -144 -61t-78 -174l-174 -1008h-200z" />
<glyph unicode="&#xe0;" horiz-adv-x="915" d="M49 250q0 99 59.5 163.5t156 91.5t229.5 27h122l11 64q4 32 4 49q0 111 -148 111q-150 0 -282 -74l30 178q59 31 138.5 49.5t156.5 18.5q140 0 222.5 -60.5t82.5 -183.5q0 -24 -8 -86l-100 -578q-143 -38 -287 -38q-179 0 -283 66.5t-104 201.5zM248 258q0 -63 51 -95 t137 -32q47 0 109 10l47 256h-100q-55 0 -97 -6.5t-76.5 -22t-52.5 -43t-18 -67.5zM356 1362h179l114 -311h-172z" />
<glyph unicode="&#xe1;" horiz-adv-x="915" d="M49 250q0 99 59.5 163.5t156 91.5t229.5 27h122l11 64q4 32 4 49q0 111 -148 111q-150 0 -282 -74l30 178q59 31 138.5 49.5t156.5 18.5q140 0 222.5 -60.5t82.5 -183.5q0 -24 -8 -86l-100 -578q-143 -38 -287 -38q-179 0 -283 66.5t-104 201.5zM248 258q0 -63 51 -95 t137 -32q47 0 109 10l47 256h-100q-55 0 -97 -6.5t-76.5 -22t-52.5 -43t-18 -67.5zM463 1051l225 311h201l-230 -311h-196z" />
<glyph unicode="&#xe2;" horiz-adv-x="915" d="M49 250q0 99 59.5 163.5t156 91.5t229.5 27h122l11 64q4 32 4 49q0 111 -148 111q-150 0 -282 -74l30 178q59 31 138.5 49.5t156.5 18.5q140 0 222.5 -60.5t82.5 -183.5q0 -24 -8 -86l-100 -578q-143 -38 -287 -38q-179 0 -283 66.5t-104 201.5zM248 258q0 -63 51 -95 t137 -32q47 0 109 10l47 256h-100q-55 0 -97 -6.5t-76.5 -22t-52.5 -43t-18 -67.5zM260 1044l291 308h129l182 -308h-168l-96 166l-154 -166h-184z" />
<glyph unicode="&#xe3;" horiz-adv-x="915" d="M49 250q0 99 59.5 163.5t156 91.5t229.5 27h122l11 64q4 32 4 49q0 111 -148 111q-150 0 -282 -74l30 178q59 31 138.5 49.5t156.5 18.5q140 0 222.5 -60.5t82.5 -183.5q0 -24 -8 -86l-100 -578q-143 -38 -287 -38q-179 0 -283 66.5t-104 201.5zM248 258q0 -63 51 -95 t137 -32q47 0 109 10l47 256h-100q-55 0 -97 -6.5t-76.5 -22t-52.5 -43t-18 -67.5zM266 1044q22 121 79 188.5t138 67.5q34 0 66 -17t51.5 -38t43 -38t44.5 -17q62 0 80 104h135q-22 -120 -78 -188t-137 -68q-34 0 -66 17.5t-51.5 38t-43 38t-44.5 17.5q-65 0 -82 -105h-135 z" />
<glyph unicode="&#xe4;" horiz-adv-x="915" d="M49 250q0 99 59.5 163.5t156 91.5t229.5 27h122l11 64q4 32 4 49q0 111 -148 111q-150 0 -282 -74l30 178q59 31 138.5 49.5t156.5 18.5q140 0 222.5 -60.5t82.5 -183.5q0 -24 -8 -86l-100 -578q-143 -38 -287 -38q-179 0 -283 66.5t-104 201.5zM248 258q0 -63 51 -95 t137 -32q47 0 109 10l47 256h-100q-55 0 -97 -6.5t-76.5 -22t-52.5 -43t-18 -67.5zM289 1180q0 52 36 87.5t87 35.5t87 -35.5t36 -87.5q0 -50 -36 -86.5t-87 -36.5t-87 36.5t-36 86.5zM641 1180q0 52 36 87.5t87 35.5t87 -35.5t36 -87.5q0 -50 -36 -86.5t-87 -36.5t-87 36.5 t-36 86.5z" />
<glyph unicode="&#xe5;" horiz-adv-x="915" d="M49 250q0 99 59.5 163.5t156 91.5t229.5 27h122l11 64q4 32 4 49q0 111 -148 111q-150 0 -282 -74l30 178q59 31 138.5 49.5t156.5 18.5q140 0 222.5 -60.5t82.5 -183.5q0 -24 -8 -86l-100 -578q-143 -38 -287 -38q-179 0 -283 66.5t-104 201.5zM248 258q0 -63 51 -95 t137 -32q47 0 109 10l47 256h-100q-55 0 -97 -6.5t-76.5 -22t-52.5 -43t-18 -67.5zM410 1186q0 83 57 138.5t145 55.5q83 0 132 -49.5t49 -124.5q0 -84 -57 -139t-146 -55q-82 0 -131 49.5t-49 124.5zM516 1188q0 -33 21 -55.5t57 -22.5q41 0 67.5 25.5t26.5 68.5 q0 33 -21.5 55.5t-58.5 22.5q-39 0 -65.5 -25.5t-26.5 -68.5z" />
<glyph unicode="&#xe6;" horiz-adv-x="1492" d="M49 242q0 282 428 282h139q4 38 21 72q-5 73 -46.5 116.5t-115.5 43.5q-145 0 -280 -74l32 178q56 30 134 49t143 19q187 0 252 -133q130 133 317 133q79 0 142 -21t103.5 -55.5t67.5 -83t38.5 -101.5t11.5 -112q0 -84 -29 -162h-612v-10q10 -108 79.5 -170.5 t176.5 -62.5q86 0 154 19t153 67l-33 -187q-126 -69 -295 -69q-204 0 -317 122q-139 -120 -334 -120q-91 0 -164.5 28t-119.5 88t-46 144zM248 256q0 -58 44 -90.5t109 -32.5q142 0 232 96q-26 73 -29 154v10h-131q-110 0 -167.5 -29t-57.5 -108zM801 524h444q2 14 2 39 q0 84 -45.5 142.5t-134.5 58.5q-95 0 -168.5 -61.5t-97.5 -178.5z" />
<glyph unicode="&#xe7;" horiz-adv-x="894" d="M74 406q0 123 41.5 224t111.5 165t159.5 98.5t188.5 34.5q186 0 299 -94l-34 -193q-112 109 -262 109q-128 0 -213.5 -86.5t-85.5 -249.5q0 -113 69 -185.5t191 -72.5q69 0 130 16.5t136 60.5l-37 -196q-95 -48 -223 -57q-22 -85 -72 -162.5t-108 -116.5h-183 q74 63 126.5 140t72.5 155q-140 36 -223.5 144.5t-83.5 265.5z" />
<glyph unicode="&#xe8;" horiz-adv-x="989" d="M74 406q0 222 135 372t354 150q96 0 169 -29t115.5 -79.5t63.5 -113.5t21 -137q0 -85 -29 -159h-631v-29q6 -109 78.5 -170t186.5 -61q87 0 158.5 19.5t154.5 66.5l-33 -187q-126 -69 -303 -69q-201 0 -320.5 114.5t-119.5 311.5zM287 543h450q2 14 2 35q0 83 -47 134.5 t-135 51.5q-100 0 -170 -59t-100 -162zM399 1362h179l114 -311h-172z" />
<glyph unicode="&#xe9;" horiz-adv-x="989" d="M74 406q0 222 135 372t354 150q96 0 169 -29t115.5 -79.5t63.5 -113.5t21 -137q0 -85 -29 -159h-631v-29q6 -109 78.5 -170t186.5 -61q87 0 158.5 19.5t154.5 66.5l-33 -187q-126 -69 -303 -69q-201 0 -320.5 114.5t-119.5 311.5zM287 543h450q2 14 2 35q0 83 -47 134.5 t-135 51.5q-100 0 -170 -59t-100 -162zM502 1051l225 311h201l-230 -311h-196z" />
<glyph unicode="&#xea;" horiz-adv-x="989" d="M74 406q0 222 135 372t354 150q96 0 169 -29t115.5 -79.5t63.5 -113.5t21 -137q0 -85 -29 -159h-631v-29q6 -109 78.5 -170t186.5 -61q87 0 158.5 19.5t154.5 66.5l-33 -187q-126 -69 -303 -69q-201 0 -320.5 114.5t-119.5 311.5zM287 543h450q2 14 2 35q0 83 -47 134.5 t-135 51.5q-100 0 -170 -59t-100 -162zM297 1044l291 308h129l182 -308h-168l-96 166l-154 -166h-184z" />
<glyph unicode="&#xeb;" horiz-adv-x="989" d="M74 406q0 222 135 372t354 150q96 0 169 -29t115.5 -79.5t63.5 -113.5t21 -137q0 -85 -29 -159h-631v-29q6 -109 78.5 -170t186.5 -61q87 0 158.5 19.5t154.5 66.5l-33 -187q-126 -69 -303 -69q-201 0 -320.5 114.5t-119.5 311.5zM287 543h450q2 14 2 35q0 83 -47 134.5 t-135 51.5q-100 0 -170 -59t-100 -162zM328 1180q0 52 36 87.5t87 35.5t86.5 -35.5t35.5 -87.5q0 -50 -35.5 -86.5t-86.5 -36.5t-87 36.5t-36 86.5zM680 1180q0 52 36 87.5t87 35.5t87 -35.5t36 -87.5q0 -50 -36 -86.5t-87 -36.5t-87 36.5t-36 86.5z" />
<glyph unicode="&#xec;" horiz-adv-x="481" d="M66 0l157 907h201l-160 -907h-198zM137 1362h178l115 -311h-172z" />
<glyph unicode="&#xed;" horiz-adv-x="481" d="M66 0l157 907h201l-160 -907h-198zM246 1051l225 311h201l-230 -311h-196z" />
<glyph unicode="&#xee;" horiz-adv-x="481" d="M39 1044l291 308h129l182 -308h-168l-96 166l-154 -166h-184zM66 0l157 907h201l-160 -907h-198z" />
<glyph unicode="&#xef;" horiz-adv-x="481" d="M66 0l157 907h201l-160 -907h-198zM74 1180q0 52 36 87.5t87 35.5t86.5 -35.5t35.5 -87.5q0 -50 -35.5 -86.5t-86.5 -36.5t-87 36.5t-36 86.5zM426 1180q0 52 36 87.5t87 35.5t87 -35.5t36 -87.5q0 -50 -36 -86.5t-87 -36.5t-87 36.5t-36 86.5z" />
<glyph unicode="&#xf0;" d="M74 410q0 216 131 359.5t344 143.5q67 0 126 -23.5t91 -64.5q-40 109 -139 234l-332 -96v135l237 67q-120 127 -258 228h252q107 -81 191 -174l246 71v-133l-156 -45q199 -269 199 -598q0 -240 -137 -387t-365 -147q-194 0 -312 118.5t-118 311.5zM274 410 q0 -114 64.5 -187t171.5 -73q130 0 210.5 95t80.5 244q0 115 -63.5 188t-170.5 73q-129 0 -211 -96.5t-82 -243.5z" />
<glyph unicode="&#xf1;" horiz-adv-x="1064" d="M66 0l147 848q240 80 414 80q340 0 340 -260q0 -43 -13 -123l-96 -545h-201l97 541q8 44 8 82q0 122 -164 122q-95 0 -209 -32l-125 -713h-198zM332 1044q22 121 79 188.5t138 67.5q34 0 66 -17t51.5 -38t43 -38t44.5 -17q62 0 80 104h135q-22 -120 -78 -188t-137 -68 q-34 0 -66 17.5t-51.5 38t-43 38t-44.5 17.5q-65 0 -82 -105h-135z" />
<glyph unicode="&#xf2;" d="M74 410q0 143 59.5 260t175 187.5t266.5 70.5q196 0 315.5 -119.5t119.5 -310.5q0 -144 -59.5 -261t-175.5 -187t-267 -70q-198 0 -316 119t-118 311zM274 412q0 -116 65 -190.5t173 -74.5q131 0 213 98t82 249q0 116 -64.5 190t-171.5 74q-131 0 -214 -97.5t-83 -248.5z M418 1362h178l115 -311h-172z" />
<glyph unicode="&#xf3;" d="M74 410q0 143 59.5 260t175 187.5t266.5 70.5q196 0 315.5 -119.5t119.5 -310.5q0 -144 -59.5 -261t-175.5 -187t-267 -70q-198 0 -316 119t-118 311zM274 412q0 -116 65 -190.5t173 -74.5q131 0 213 98t82 249q0 116 -64.5 190t-171.5 74q-131 0 -214 -97.5t-83 -248.5z M526 1051l226 311h200l-229 -311h-197z" />
<glyph unicode="&#xf4;" d="M74 410q0 143 59.5 260t175 187.5t266.5 70.5q196 0 315.5 -119.5t119.5 -310.5q0 -144 -59.5 -261t-175.5 -187t-267 -70q-198 0 -316 119t-118 311zM274 412q0 -116 65 -190.5t173 -74.5q131 0 213 98t82 249q0 116 -64.5 190t-171.5 74q-131 0 -214 -97.5t-83 -248.5z M313 1044l291 308h129l182 -308h-167l-97 166l-153 -166h-185z" />
<glyph unicode="&#xf5;" d="M74 410q0 143 59.5 260t175 187.5t266.5 70.5q196 0 315.5 -119.5t119.5 -310.5q0 -144 -59.5 -261t-175.5 -187t-267 -70q-198 0 -316 119t-118 311zM274 412q0 -116 65 -190.5t173 -74.5q131 0 213 98t82 249q0 116 -64.5 190t-171.5 74q-131 0 -214 -97.5t-83 -248.5z M324 1044q22 121 79 188.5t138 67.5q34 0 65.5 -17t51 -38t43 -38t44.5 -17q62 0 80 104h136q-22 -120 -78.5 -188t-137.5 -68q-34 0 -65.5 17.5t-51 38t-43 38t-44.5 17.5q-65 0 -82 -105h-135z" />
<glyph unicode="&#xf6;" d="M74 410q0 143 59.5 260t175 187.5t266.5 70.5q196 0 315.5 -119.5t119.5 -310.5q0 -144 -59.5 -261t-175.5 -187t-267 -70q-198 0 -316 119t-118 311zM274 412q0 -116 65 -190.5t173 -74.5q131 0 213 98t82 249q0 116 -64.5 190t-171.5 74q-131 0 -214 -97.5t-83 -248.5z M346 1180q0 52 36 87.5t87 35.5t87 -35.5t36 -87.5q0 -50 -36 -86.5t-87 -36.5t-87 36.5t-36 86.5zM698 1180q0 52 36 87.5t87 35.5t87 -35.5t36 -87.5q0 -50 -36 -86.5t-87 -36.5t-87 36.5t-36 86.5z" />
<glyph unicode="&#xf7;" horiz-adv-x="940" d="M90 520l27 158h776l-27 -158h-776zM315 287q0 49 34.5 84t84.5 35t85.5 -35t35.5 -84t-35.5 -85t-85.5 -36q-49 0 -84 35.5t-35 85.5zM426 913q0 49 35 84t84 35q50 0 85.5 -35t35.5 -84t-35.5 -84.5t-85.5 -35.5q-49 0 -84 35t-35 85z" />
<glyph unicode="&#xf8;" horiz-adv-x="1091" d="M8 -10l150 151q-80 113 -80 269q0 143 59.5 260t175.5 187.5t267 70.5q161 0 274 -86l72 76h159l-153 -156q82 -113 82 -264q0 -144 -59.5 -261t-175.5 -187t-267 -70q-161 0 -274 83l-72 -73h-158zM274 412q0 -70 25 -131l428 436q-57 45 -152 45q-133 0 -217 -99 t-84 -251zM365 188q57 -45 151 -45q133 0 218 99.5t85 251.5q0 69 -26 129z" />
<glyph unicode="&#xf9;" horiz-adv-x="1019" d="M86 248q0 50 10 104l99 555h198l-98 -565q-6 -34 -6 -55q0 -74 47.5 -108t142.5 -34q76 0 160 19l131 743h199l-156 -880q-185 -47 -346 -47q-381 0 -381 268zM395 1362h178l115 -311h-172z" />
<glyph unicode="&#xfa;" horiz-adv-x="1019" d="M86 248q0 50 10 104l99 555h198l-98 -565q-6 -34 -6 -55q0 -74 47.5 -108t142.5 -34q76 0 160 19l131 743h199l-156 -880q-185 -47 -346 -47q-381 0 -381 268zM502 1051l225 311h201l-230 -311h-196z" />
<glyph unicode="&#xfb;" horiz-adv-x="1019" d="M86 248q0 50 10 104l99 555h198l-98 -565q-6 -34 -6 -55q0 -74 47.5 -108t142.5 -34q76 0 160 19l131 743h199l-156 -880q-185 -47 -346 -47q-381 0 -381 268zM295 1044l291 308h129l182 -308h-168l-96 166l-154 -166h-184z" />
<glyph unicode="&#xfc;" horiz-adv-x="1019" d="M86 248q0 50 10 104l99 555h198l-98 -565q-6 -34 -6 -55q0 -74 47.5 -108t142.5 -34q76 0 160 19l131 743h199l-156 -880q-185 -47 -346 -47q-381 0 -381 268zM319 1180q0 52 36 87.5t87 35.5t87 -35.5t36 -87.5q0 -50 -36 -86.5t-87 -36.5t-87 36.5t-36 86.5zM672 1180 q0 52 36 87.5t87 35.5t87 -35.5t36 -87.5q0 -50 -36 -86.5t-87 -36.5t-87 36.5t-36 86.5z" />
<glyph unicode="&#xfd;" horiz-adv-x="960" d="M88 -369l195 342l-195 934h201l135 -710l391 710h213l-735 -1276h-205zM477 1051l225 311h201l-229 -311h-197z" />
<glyph unicode="&#xfe;" d="M-4 -369l311 1762h201l-88 -500q86 35 176 35q186 0 301 -115.5t115 -308.5q0 -234 -145 -379t-392 -145q-61 0 -119.5 14.5t-89.5 34.5l-69 -398h-201zM297 197q73 -47 176 -47q158 0 247 94t89 254q0 112 -66.5 185t-177.5 73q-100 0 -176 -39z" />
<glyph unicode="&#xff;" horiz-adv-x="960" d="M88 -369l195 342l-195 934h201l135 -710l391 710h213l-735 -1276h-205zM303 1180q0 52 36 87.5t87 35.5t87 -35.5t36 -87.5q0 -50 -36 -86.5t-87 -36.5t-87 36.5t-36 86.5zM655 1180q0 52 36 87.5t87 35.5t87 -35.5t36 -87.5q0 -50 -36 -86.5t-87 -36.5t-87 36.5 t-36 86.5z" />
<glyph unicode="&#x152;" horiz-adv-x="1671" d="M113 557q0 134 46 254t129.5 210t208.5 143t273 53h934l-33 -185h-530l-58 -327h490l-31 -183h-491l-60 -338h543l-33 -184h-809q-262 0 -420.5 152.5t-158.5 404.5zM328 557q0 -166 98.5 -270.5t265.5 -104.5h94l148 850h-164q-200 0 -321 -132.5t-121 -342.5z" />
<glyph unicode="&#x153;" horiz-adv-x="1708" d="M74 410q0 143 59.5 260t175 187.5t266.5 70.5q111 0 201 -47t146 -127q64 81 156 127.5t204 46.5q96 0 169 -29t115.5 -79.5t63.5 -113.5t21 -137q0 -85 -29 -159h-631v-29q6 -109 78 -170t186 -61q87 0 159 19.5t155 66.5l-33 -187q-126 -69 -303 -69 q-118 0 -208.5 45.5t-147.5 128.5q-64 -80 -160 -127t-209 -47q-198 0 -316 119t-118 311zM274 412q0 -116 65 -190.5t173 -74.5q131 0 213 98t82 249q0 116 -64.5 190t-171.5 74q-131 0 -214 -97.5t-83 -248.5zM1006 543h450q2 14 2 35q0 83 -47 134.5t-135 51.5 q-100 0 -170 -59t-100 -162z" />
<glyph unicode="&#x178;" horiz-adv-x="1107" d="M150 1217h223l217 -555l409 555h236l-569 -752l-82 -465h-209l82 465zM430 1423q0 52 36 87.5t87 35.5t87 -35.5t36 -87.5q0 -50 -36 -86.5t-87 -36.5t-87 36.5t-36 86.5zM782 1423q0 52 36 87.5t87 35.5t87 -35.5t36 -87.5q0 -50 -36 -86.5t-87 -36.5t-87 36.5t-36 86.5 z" />
<glyph unicode="&#x2c6;" horiz-adv-x="1024" d="M211 1044l291 308h129l182 -308h-168l-96 166l-154 -166h-184z" />
<glyph unicode="&#x2dc;" horiz-adv-x="1024" d="M193 1044q22 121 79 188.5t138 67.5q34 0 65.5 -17t51 -38t43 -38t44.5 -17q62 0 80 104h135q-22 -120 -78 -188t-137 -68q-34 0 -65.5 17.5t-51 38t-43 38t-44.5 17.5q-64 0 -82 -105h-135z" />
<glyph unicode="&#x2000;" horiz-adv-x="828" />
<glyph unicode="&#x2001;" horiz-adv-x="1657" />
<glyph unicode="&#x2002;" horiz-adv-x="828" />
<glyph unicode="&#x2003;" horiz-adv-x="1657" />
<glyph unicode="&#x2004;" horiz-adv-x="552" />
<glyph unicode="&#x2005;" horiz-adv-x="414" />
<glyph unicode="&#x2006;" horiz-adv-x="276" />
<glyph unicode="&#x2007;" horiz-adv-x="276" />
<glyph unicode="&#x2008;" horiz-adv-x="207" />
<glyph unicode="&#x2009;" horiz-adv-x="331" />
<glyph unicode="&#x200a;" horiz-adv-x="92" />
<glyph unicode="&#x2010;" horiz-adv-x="727" d="M109 442l32 181h508l-33 -181h-507z" />
<glyph unicode="&#x2011;" horiz-adv-x="727" d="M109 442l32 181h508l-33 -181h-507z" />
<glyph unicode="&#x2012;" horiz-adv-x="727" d="M109 442l32 181h508l-33 -181h-507z" />
<glyph unicode="&#x2013;" horiz-adv-x="1171" d="M113 465l26 153h953l-27 -153h-952z" />
<glyph unicode="&#x2014;" horiz-adv-x="1949" d="M113 465l26 153h1731l-27 -153h-1730z" />
<glyph unicode="&#x2018;" horiz-adv-x="464" d="M180 885q25 143 104.5 257t180.5 177h143q-176 -188 -219 -434h-209z" />
<glyph unicode="&#x2019;" horiz-adv-x="464" d="M111 885q176 188 219 434h209q-25 -141 -104.5 -256t-180.5 -178h-143z" />
<glyph unicode="&#x201a;" horiz-adv-x="464" d="M-100 -227q176 188 219 434h209q-25 -141 -104.5 -256t-180.5 -178h-143z" />
<glyph unicode="&#x201c;" horiz-adv-x="802" d="M180 885q25 143 104.5 257t180.5 177h143q-176 -188 -219 -434h-209zM518 885q25 142 104.5 256t180.5 178h143q-176 -188 -219 -434h-209z" />
<glyph unicode="&#x201d;" horiz-adv-x="802" d="M111 885q176 188 219 434h209q-25 -141 -105 -256t-180 -178h-143zM446 885q179 188 222 434h209q-25 -142 -105 -256.5t-182 -177.5h-144z" />
<glyph unicode="&#x201e;" horiz-adv-x="802" d="M-100 -227q176 188 219 434h209q-25 -141 -105 -256t-180 -178h-143zM236 -227q91 95 144.5 199.5t76.5 234.5h209q-25 -142 -105 -256.5t-182 -177.5h-143z" />
<glyph unicode="&#x2022;" horiz-adv-x="677" d="M133 532q0 91 62.5 154.5t152.5 63.5q89 0 152 -63.5t63 -154.5q0 -89 -63 -151t-152 -62q-91 0 -153 62t-62 151z" />
<glyph unicode="&#x2026;" horiz-adv-x="1564" d="M80 121q0 60 39.5 101.5t95.5 41.5q63 0 105 -41.5t42 -101.5q0 -58 -42.5 -98.5t-104.5 -40.5q-55 0 -95 41t-40 98zM600 121q0 60 40.5 101.5t96.5 41.5q61 0 103.5 -41.5t42.5 -101.5q0 -57 -42.5 -98t-103.5 -41q-56 0 -96.5 41t-40.5 98zM1122 121q0 59 41 101 t97 42q62 0 103.5 -41t41.5 -102q0 -58 -41.5 -98.5t-103.5 -40.5q-56 0 -97 41t-41 98z" />
<glyph unicode="&#x202f;" horiz-adv-x="331" />
<glyph unicode="&#x2039;" horiz-adv-x="641" d="M98 438l305 326h199l-303 -328l199 -319h-195z" />
<glyph unicode="&#x203a;" horiz-adv-x="641" d="M43 117l301 327l-199 320h197l203 -322l-305 -325h-197z" />
<glyph unicode="&#x205f;" horiz-adv-x="414" />
<glyph unicode="&#x20ac;" horiz-adv-x="1058" d="M37 432l22 123h127q3 65 11 115h-117l20 121h125q65 207 214 324.5t339 117.5q198 0 309 -121l-38 -207q-107 142 -271 142q-117 0 -205.5 -68t-136.5 -188h363l-45 -121h-355q-9 -55 -12 -115h324l-45 -123h-277q15 -125 84 -194.5t178 -69.5q161 0 307 113l-40 -222 q-113 -79 -277 -79q-196 0 -316 121.5t-139 330.5h-149z" />
<glyph unicode="&#x2122;" horiz-adv-x="1425" d="M174 1094l21 123h489l-20 -123h-175l-79 -445h-142l80 445h-174zM608 649l195 568h162l51 -396l184 396h168l-8 -568h-135l6 379l-187 -379h-118l-52 379l-126 -379h-140z" />
<glyph unicode="&#x25fc;" horiz-adv-x="911" d="M0 0v911h911v-911h-911z" />
</font>
</defs>
</svg>
